<?xml version="1.0" encoding="UTF-8" standalone="no"?>
<!-- Created with Inkscape (http://www.inkscape.org/) -->

<svg
   xmlns:dc="http://purl.org/dc/elements/1.1/"
   xmlns:cc="http://creativecommons.org/ns#"
   xmlns:rdf="http://www.w3.org/1999/02/22-rdf-syntax-ns#"
   xmlns:svg="http://www.w3.org/2000/svg"
   xmlns="http://www.w3.org/2000/svg"
   xmlns:sodipodi="http://sodipodi.sourceforge.net/DTD/sodipodi-0.dtd"
   xmlns:inkscape="http://www.inkscape.org/namespaces/inkscape"
   width="160.07816mm"
   height="42.605476mm"
   viewBox="0 0 160.07816 42.605476"
   version="1.1"
   id="svg8"
   inkscape:version="0.92.4 (5da689c313, 2019-01-14)"
   sodipodi:docname="logo.svg">
  <defs
     id="defs2" />
  <sodipodi:namedview
     id="base"
     pagecolor="#ffffff"
     bordercolor="#666666"
     borderopacity="1.0"
     inkscape:pageopacity="0.0"
     inkscape:pageshadow="2"
     inkscape:zoom="1.4"
     inkscape:cx="429.28106"
     inkscape:cy="74.84371"
     inkscape:document-units="mm"
     inkscape:current-layer="layer1"
     showgrid="false"
     inkscape:window-width="1920"
     inkscape:window-height="1027"
     inkscape:window-x="1912"
     inkscape:window-y="-8"
     inkscape:window-maximized="1" />
  <metadata
     id="metadata5">
    <rdf:RDF>
      <cc:Work
         rdf:about="">
        <dc:format>image/svg+xml</dc:format>
        <dc:type
           rdf:resource="http://purl.org/dc/dcmitype/StillImage" />
        <dc:title></dc:title>
      </cc:Work>
    </rdf:RDF>
  </metadata>
  <g
     inkscape:label="Camada 1"
     inkscape:groupmode="layer"
     id="layer1"
     transform="translate(-23.178568,-69.440412)">
    <text
       xml:space="preserve"
       style="font-style:normal;font-variant:normal;font-weight:normal;font-stretch:normal;font-size:29.24334717px;line-height:1.25;font-family:Raleway;-inkscape-font-specification:Raleway;letter-spacing:0px;word-spacing:0px;fill:#000000;fill-opacity:1;stroke:none;stroke-width:0.73108363"
       x="55.29789"
       y="102.73489"
       id="text3944"><tspan
         sodipodi:role="line"
         id="tspan3942"
         x="55.29789"
         y="102.73489"
         style="font-style:normal;font-variant:normal;font-weight:bold;font-stretch:normal;font-family:Raleway;-inkscape-font-specification:'Raleway Bold';stroke-width:0.73108363"><tspan
           style="fill:#377b44;fill-opacity:1"
           id="tspan4802">Brasil</tspan><tspan
           style="fill:#d4aa00"
           id="tspan4804">Flix</tspan></tspan></text>
    <text
       xml:space="preserve"
       style="font-style:normal;font-variant:normal;font-weight:normal;font-stretch:normal;font-size:8.48536777px;line-height:1.25;font-family:Raleway;-inkscape-font-specification:Raleway;letter-spacing:0px;word-spacing:0px;fill:#377b44;fill-opacity:1;stroke:none;stroke-width:0.21213418"
       x="83.908447"
       y="111.96104"
       id="text3948"><tspan
         sodipodi:role="line"
         id="tspan3946"
         x="83.908447"
         y="111.96104"
         style="font-style:normal;font-variant:normal;font-weight:600;font-stretch:normal;font-family:Raleway;-inkscape-font-specification:'Raleway Semi-Bold';fill:#377b44;fill-opacity:1;stroke-width:0.21213418">Filmes e séries nacionais</tspan></text>
    <g
       id="Layer_2"
       data-name="Layer 2"
       transform="matrix(0.10091417,0,0,0.10091417,23.178161,69.440022)"
       style="fill:#d4aa00;fill-opacity:1">
      <g
         id="popcorn_snack_corn_pop_food_meal_fast_restaurant_junk_fastfood"
         data-name="popcorn, snack, corn, pop, food, meal, fast, restaurant, junk, fastfood"
         style="fill:#d4aa00;fill-opacity:1">
        <path
           id="path3952"
           d="M 90.75,10.76 A 25.27,25.27 0 0 0 86.1,25.6 5.39,5.39 0 0 0 91.49,31 v 0 a 5.39,5.39 0 0 0 5.35,-5.42 14.63,14.63 0 0 1 28.16,-5.84 5.4192343,5.4192343 0 1 0 10,-4.18 25.43,25.43 0 0 0 -44.2,-4.8 z"
           inkscape:connector-curvature="0"
           style="fill:#d4aa00;fill-opacity:1" />
        <path
           id="path3954"
           d="m 141.63,36.43 a 5.4,5.4 0 0 0 4.92,-3.17 27,27 0 0 1 1.93,-3.54 26.68,26.68 0 0 1 6.52,-6.92 5.35,5.35 0 0 0 2,-3.18 11.21,11.21 0 0 1 9.83,-8.78 11.23,11.23 0 0 1 8.24,2.47 11.34,11.34 0 0 1 2.93,3.69 5.42,5.42 0 0 0 2.78,2.56 27,27 0 0 1 4.5,2.33 c 0.64,0.42 1.29,0.89 2,1.43 a 5.39,5.39 0 0 0 3.58,1.14 14.76,14.76 0 0 1 5.29,0.72 5.3917066,5.3917066 0 1 0 3.38,-10.24 25.22,25.22 0 0 0 -7.15,-1.26 l -1.24,-0.84 a 36.68,36.68 0 0 0 -4.52,-2.5 22,22 0 0 0 -39.62,5 37.34,37.34 0 0 0 -7.58,8.52 39.06,39.06 0 0 0 -2.71,5 5.39,5.39 0 0 0 2.7,7.14 5.32,5.32 0 0 0 2.22,0.43 z"
           inkscape:connector-curvature="0"
           style="fill:#d4aa00;fill-opacity:1" />
        <path
           id="path3956"
           d="m 164.28,61.65 a 5.3901878,5.3901878 0 0 0 8.57,-6.54 35.78,35.78 0 0 0 -49.81,-7 5.39,5.39 0 1 0 6.44,8.64 25,25 0 0 1 34.8,4.89 z"
           inkscape:connector-curvature="0"
           style="fill:#d4aa00;fill-opacity:1" />
        <path
           id="path3958"
           d="M 15.07,79.75 A 5.4,5.4 0 0 0 7.78,82 a 21.08,21.08 0 0 0 -2.43,9.82 20.72,20.72 0 0 0 2.28,9.5 5.3912939,5.3912939 0 1 0 9.61,-4.89 10.18,10.18 0 0 1 0.07,-9.43 5.4,5.4 0 0 0 -2.24,-7.25 z"
           inkscape:connector-curvature="0"
           style="fill:#d4aa00;fill-opacity:1" />
        <path
           id="path3960"
           d="m 258.82,33.54 a 25.41,25.41 0 0 0 -44,-5.3 l -1.38,0.54 a 37.64,37.64 0 0 0 -4.62,2.32 21.59,21.59 0 0 0 -7.06,0.86 22.1,22.1 0 0 0 -11.76,8.4 5.3910319,5.3910319 0 0 0 8.8,6.23 11.23,11.23 0 0 1 10.67,-4.59 5.4,5.4 0 0 0 3.69,-0.84 26.58,26.58 0 0 1 4.46,-2.38 24.54,24.54 0 0 1 2.31,-0.84 5.39,5.39 0 0 0 3,-2.3 14.64,14.64 0 0 1 26.9,10.06 5.43,5.43 0 0 0 0.73,3.69 26.71,26.71 0 0 1 3.15,7.47 5.39,5.39 0 0 0 5.22,4.07 5.51,5.51 0 0 0 1.33,-0.17 5.39,5.39 0 0 0 3.9,-6.54 37.76,37.76 0 0 0 -3.44,-8.79 25.15,25.15 0 0 0 -1.9,-11.89 z"
           inkscape:connector-curvature="0"
           style="fill:#d4aa00;fill-opacity:1" />
        <path
           id="path3962"
           d="m 18.9,47.53 a 37.44,37.44 0 0 0 11.46,37.09 21.77,21.77 0 0 0 1.64,4.23 5.3942933,5.3942933 0 1 0 9.56,-5 A 11.23,11.23 0 0 1 40.48,80.66 5.33,5.33 0 0 0 38.53,77.41 26.61,26.61 0 1 1 78,43 a 26.06,26.06 0 0 1 1.86,3.74 5.39,5.39 0 0 0 10,-4 A 37.62,37.62 0 0 0 87.25,37.5 37.38,37.38 0 0 0 18.9,47.53 Z"
           inkscape:connector-curvature="0"
           style="fill:#d4aa00;fill-opacity:1" />
        <path
           id="path3964"
           d="m 118.61,85.37 a 26.77,26.77 0 0 1 3.94,13.19 5.3920868,5.3920868 0 1 0 10.78,-0.3 37.14,37.14 0 0 0 -2.87,-13.32 c -0.5,-1.2 -1.07,-2.38 -1.69,-3.53 A 25.42,25.42 0 0 0 83,64.26 c -0.47,0.18 -0.93,0.36 -1.38,0.55 a 37,37 0 0 0 -4.63,2.31 21.4,21.4 0 0 0 -7.06,0.87 22,22 0 0 0 -14.99,27.31 21.71,21.71 0 0 0 5.1,8.88 5.39,5.39 0 1 0 7.85,-7.38 11.22,11.22 0 0 1 5,-18.47 11,11 0 0 1 4.67,-0.33 5.41,5.41 0 0 0 3.69,-0.85 26.58,26.58 0 0 1 4.46,-2.38 c 0.71,-0.3 1.47,-0.57 2.3,-0.83 a 5.39,5.39 0 0 0 3,-2.31 14.64,14.64 0 0 1 26.9,10.06 5.36,5.36 0 0 0 0.7,3.68 z"
           inkscape:connector-curvature="0"
           style="fill:#d4aa00;fill-opacity:1" />
        <path
           id="path3966"
           d="m 174.7,78.33 a 11,11 0 0 1 4.64,-0.34 5.41,5.41 0 0 0 3.69,-0.85 26.58,26.58 0 0 1 4.46,-2.38 c 0.72,-0.3 1.47,-0.57 2.31,-0.83 a 5.42,5.42 0 0 0 3,-2.31 14.47,14.47 0 0 1 6.8,-5.81 14.62,14.62 0 0 1 10.32,-0.36 5.3917066,5.3917066 0 0 0 3.44,-10.22 25.42,25.42 0 0 0 -28.6,9 c -0.47,0.18 -0.93,0.36 -1.38,0.55 a 36.2,36.2 0 0 0 -4.62,2.31 21.36,21.36 0 0 0 -7.06,0.87 22,22 0 0 0 -14.97,27.34 21.68,21.68 0 0 0 5.09,8.88 5.39,5.39 0 1 0 7.85,-7.38 11.22,11.22 0 0 1 5,-18.47 z"
           inkscape:connector-curvature="0"
           style="fill:#d4aa00;fill-opacity:1" />
        <path
           id="path3968"
           d="m 263.8,70.81 a 20.78,20.78 0 0 0 -6.6,1.07 37.13,37.13 0 0 0 -4.72,-0.85 l -1.31,-0.12 a 24.19,24.19 0 0 0 -36.42,29.75 5.39,5.39 0 0 0 9.72,-4.66 13.41,13.41 0 0 1 21.06,-15.78 5.45,5.45 0 0 0 3.5,1.38 c 0.81,0 1.54,0.06 2.26,0.14 a 25.3,25.3 0 0 1 4.59,1 5.36,5.36 0 0 0 3.78,-0.22 10.08,10.08 0 0 1 4.14,-0.89 10.2,10.2 0 0 1 9.11,14.83 5.3912939,5.3912939 0 1 0 9.61,4.89 21,21 0 0 0 -18.72,-30.5 z"
           inkscape:connector-curvature="0"
           style="fill:#d4aa00;fill-opacity:1" />
        <path
           id="path3970"
           d="m 13.83,250.53 a 5.38,5.38 0 0 0 5,-5.75 l -0.49,-6.93 a 5.39,5.39 0 0 0 -10.75,0.76 l 0.49,6.93 a 5.39,5.39 0 0 0 5.37,5 z"
           inkscape:connector-curvature="0"
           style="fill:#d4aa00;fill-opacity:1" />
        <path
           id="path3972"
           d="m 266.38,391.9 18.37,-259.79 a 18.69,18.69 0 0 0 -18.66,-20 H 18.7 a 18.69,18.69 0 0 0 -18.65,20 l 5.46,77.28 a 5.3934034,5.3934034 0 0 0 10.76,-0.76 L 10.8,131.35 a 7.93,7.93 0 0 1 7.9,-8.48 H 50 l 13.68,202 a 5.39,5.39 0 0 0 5.37,5 h 0.37 a 5.38,5.38 0 0 0 5,-5.74 L 60.83,122.87 h 43.57 l 1,28.36 a 5.4,5.4 0 0 0 5.39,5.2 h 0.2 a 5.4,5.4 0 0 0 5.19,-5.58 l -1,-28 h 54.42 l -6.43,176 a 5.38,5.38 0 0 0 5.19,5.58 h 0.2 a 5.4,5.4 0 0 0 5.39,-5.19 l 6.44,-176.36 h 85.7 a 7.93,7.93 0 0 1 7.91,8.48 l -15.72,222.17 h -21.44 a 5.39,5.39 0 1 0 0,10.78 h 20.68 l -1.9,26.83 a 7.59,7.59 0 0 1 -7.55,7 H 36.72 a 7.58,7.58 0 0 1 -7.54,-7 l -1.9,-26.83 H 213.4 a 5.37,5.37 0 0 0 1.06,-0.11 c 0.11,0 0.22,-0.07 0.33,-0.1 a 4.88,4.88 0 0 0 0.65,-0.2 c 0.14,-0.06 0.26,-0.13 0.39,-0.2 a 4.16,4.16 0 0 0 0.51,-0.28 3.17,3.17 0 0 0 0.36,-0.28 3.65,3.65 0 0 0 0.43,-0.35 c 0.11,-0.11 0.2,-0.22 0.31,-0.34 0.11,-0.12 0.24,-0.28 0.35,-0.43 0.11,-0.15 0.16,-0.26 0.24,-0.4 a 4.45,4.45 0 0 0 0.26,-0.48 3.61,3.61 0 0 0 0.17,-0.46 c 0.06,-0.17 0.12,-0.34 0.17,-0.52 0.05,-0.18 0.06,-0.33 0.08,-0.5 0.02,-0.17 0,-0.25 0.06,-0.38 l 14.41,-212.84 a 5.39,5.39 0 0 0 -10.75,-0.73 L 208.36,353.53 H 172 l 0.7,-19.12 a 5.39,5.39 0 1 0 -10.77,-0.39 l -0.72,19.51 H 123.62 L 117.4,183.36 a 5.39,5.39 0 1 0 -10.77,0.39 l 6.21,169.78 H 26.51 l -5.07,-71.68 a 5.39,5.39 0 1 0 -10.75,0.76 l 7.73,109.29 a 18.41,18.41 0 0 0 18.3,17.1 h 211.35 a 18.42,18.42 0 0 0 18.31,-17.1 z"
           inkscape:connector-curvature="0"
           style="fill:#d4aa00;fill-opacity:1" />
      </g>
    </g>
  </g>
</svg>
